<?xml version="1.0" encoding="utf-8"?>
<!-- Generator: Adobe Illustrator 19.0.0, SVG Export Plug-In . SVG Version: 6.00 Build 0)  -->
<svg version="1.1" id="Layer_1" xmlns="http://www.w3.org/2000/svg" xmlns:xlink="http://www.w3.org/1999/xlink" x="0px" y="0px"
	 viewBox="0 0 500 500" style="enable-background:new 0 0 500 500;" xml:space="preserve">
<style type="text/css">
	.st0{fill:#009818;}
	.st1{fill:#FCFF00;}
	.st2{fill:#FF0000;}
	.st3{fill:#FFFFFF;}
</style>
<g id="XMLID_1_">
	<rect id="XMLID_3_" x="68.2" y="159.8" width="363.6" height="180.4"/>
	<polygon id="XMLID_4_" points="68.2,159.8 68.2,160.5 431.1,160.5 431.1,339.5 68.9,339.5 68.9,159.8 68.2,159.8 68.2,160.5 
		68.2,159.8 67.5,159.8 67.5,340.9 432.5,340.9 432.5,159.1 67.5,159.1 67.5,159.8 	"/>
	<rect id="XMLID_5_" x="72.4" y="318" class="st0" width="11.1" height="16.7"/>
	<rect id="XMLID_6_" x="90.4" y="318" class="st0" width="11.1" height="16.7"/>
	<rect id="XMLID_7_" x="108.4" y="318" class="st0" width="11.1" height="16.7"/>
	<rect id="XMLID_8_" x="126.5" y="318" class="st0" width="11.1" height="16.7"/>
	<rect id="XMLID_9_" x="72.4" y="295.8" class="st0" width="11.1" height="16.7"/>
	<rect id="XMLID_10_" x="90.4" y="295.8" class="st0" width="11.1" height="16.7"/>
	<rect id="XMLID_11_" x="108.4" y="295.8" class="st0" width="11.1" height="16.7"/>
	<rect id="XMLID_12_" x="126.5" y="295.8" class="st0" width="11.1" height="16.7"/>
	<rect id="XMLID_13_" x="72.4" y="273.6" class="st0" width="11.1" height="16.7"/>
	<rect id="XMLID_14_" x="90.4" y="273.6" class="st0" width="11.1" height="16.7"/>
	<rect id="XMLID_15_" x="108.4" y="273.6" class="st0" width="11.1" height="16.7"/>
	<rect id="XMLID_16_" x="126.5" y="273.6" class="st0" width="11.1" height="16.7"/>
	<rect id="XMLID_17_" x="72.4" y="251.4" class="st1" width="11.1" height="16.7"/>
	<rect id="XMLID_18_" x="90.4" y="251.4" class="st1" width="11.1" height="16.7"/>
	<rect id="XMLID_19_" x="108.4" y="251.4" class="st1" width="11.1" height="16.7"/>
	<rect id="XMLID_20_" x="126.5" y="251.4" class="st1" width="11.1" height="16.7"/>
	<rect id="XMLID_21_" x="72.4" y="229.2" class="st1" width="11.1" height="16.7"/>
	<rect id="XMLID_22_" x="90.4" y="229.2" class="st1" width="11.1" height="16.7"/>
	<rect id="XMLID_23_" x="108.4" y="229.2" class="st1" width="11.1" height="16.7"/>
	<rect id="XMLID_24_" x="72.4" y="208.4" class="st1" width="11.1" height="16.7"/>
	<rect id="XMLID_25_" x="90.4" y="208.4" class="st1" width="11.1" height="16.7"/>
	<rect id="XMLID_26_" x="108.4" y="208.4" class="st1" width="11.1" height="16.7"/>
	<rect id="XMLID_27_" x="72.4" y="186.2" class="st2" width="11.1" height="16.7"/>
	<rect id="XMLID_28_" x="108.4" y="186.2" class="st2" width="11.1" height="16.7"/>
	<rect id="XMLID_29_" x="72.4" y="164" class="st2" width="11.1" height="16.7"/>
	<path id="XMLID_30_" class="st3" d="M394.3,277.3c-13.6,0-24.5-11-24.5-24.5c0-13.6,11-24.5,24.5-24.5c6.1,0,11.7,2.3,16,6
		l15.2-22.2c-8.6-6.6-19.5-10.6-31.2-10.6c-28.4,0-51.3,23-51.3,51.3c0,28.4,23,51.3,51.3,51.3c12.6,0,24.1-4.5,33-12l-16.2-21.5
		C406.8,274.8,400.9,277.3,394.3,277.3z"/>
	<path id="XMLID_33_" class="st3" d="M272.9,205.2l-3.5,23.8c40-13.1,40.2,8.4,40.2,8.4v7.8c-5.9-5.3-13.7-8.5-22.2-8.5
		c-18.4,0-33.3,14.9-33.3,33.3s14.9,33.3,33.3,33.3c8.5,0,16.3-3.2,22.2-8.5v6.1l23.5-1.2l1.5-71.7
		C334.7,219.9,322.2,191.7,272.9,205.2z M294.4,279.8c-7.3,0-13.2-5.3-13.2-11.8c0-6.5,5.9-11.8,13.2-11.8c7.3,0,13.2,5.3,13.2,11.8
		C307.6,274.6,301.7,279.8,294.4,279.8z"/>
	<polygon id="XMLID_34_" class="st3" points="219.5,302 219.5,172.3 247,169.3 247,299 	"/>
	<path id="XMLID_35_" class="st3" d="M161.2,301.4l26.4-2.8v-69.3l15.2,0v-23.6h-15.3v-3c0-7.2,6.4-10.9,11.5-10.9h12.1l-6.9-24.9
		h-9.5c-17,0-33.5,12.2-33.5,33v5.7h-9.7l-5.6,23.6H161L161.2,301.4z"/>
	<path id="XMLID_36_" class="st3" d="M162.8,317.3c0.5-0.6,1.4-0.9,2.7-0.9c0.1,0,0.3,0,0.4,0c0.1,0,0.3,0,0.5,0v1.6
		c-0.2,0-0.4,0-0.5,0l-0.3,0c-0.6,0-1,0.1-1.1,0.4c-0.1,0.3-0.2,1-0.2,2.1h2v1.3h-2v8.8h-2v-8.8h-1.7v-1.3h1.7v-1.6
		C162.4,318.2,162.5,317.7,162.8,317.3z"/>
	<path id="XMLID_37_" class="st3" d="M168.3,320.4h1.9v1.8c0.2-0.3,0.5-0.8,1.2-1.2c0.6-0.5,1.3-0.7,2.1-0.7l0.2,0
		c0.1,0,0.2,0,0.5,0v1.8l-0.3,0l-0.3,0c-1,0-1.8,0.3-2.3,0.8c-0.5,0.6-0.8,1.2-0.8,1.9v5.8h-2V320.4z"/>
	<path id="XMLID_40_" class="st3" d="M183.3,320.7c0.8,0.3,1.4,0.8,1.8,1.3c0.4,0.5,0.7,1.1,0.8,1.8c0.1,0.5,0.2,1.2,0.2,2.2h-8.8
		c0,1,0.3,1.9,0.9,2.5c0.5,0.6,1.4,0.9,2.5,0.9c1,0,1.9-0.3,2.5-0.9c0.3-0.3,0.6-0.7,0.7-1.2h2c-0.1,0.4-0.2,0.8-0.5,1.2
		c-0.3,0.5-0.6,0.8-1,1.1c-0.6,0.5-1.4,0.8-2.3,1c-0.5,0.1-1,0.2-1.6,0.2c-1.5,0-2.8-0.5-3.8-1.4c-1-0.9-1.6-2.2-1.6-3.9
		c0-1.6,0.5-3,1.6-4c1-1,2.4-1.5,4.1-1.5C181.7,320.2,182.6,320.4,183.3,320.7z M184.1,324.7c-0.1-0.7-0.3-1.3-0.6-1.8
		c-0.5-0.8-1.5-1.2-2.8-1.2c-0.9,0-1.7,0.3-2.3,0.8c-0.6,0.6-1,1.3-1,2.2H184.1z"/>
	<path id="XMLID_43_" class="st3" d="M196.1,320.7c0.8,0.3,1.4,0.8,1.8,1.3c0.4,0.5,0.7,1.1,0.8,1.8c0.1,0.5,0.2,1.2,0.2,2.2h-8.8
		c0,1,0.3,1.9,0.9,2.5c0.5,0.6,1.4,0.9,2.5,0.9c1,0,1.9-0.3,2.5-0.9c0.3-0.3,0.6-0.7,0.7-1.2h2c-0.1,0.4-0.2,0.8-0.5,1.2
		c-0.3,0.5-0.6,0.8-1,1.1c-0.6,0.5-1.4,0.8-2.3,1c-0.5,0.1-1,0.2-1.6,0.2c-1.5,0-2.8-0.5-3.8-1.4c-1-0.9-1.6-2.2-1.6-3.9
		c0-1.6,0.5-3,1.6-4c1-1,2.4-1.5,4.1-1.5C194.5,320.2,195.4,320.4,196.1,320.7z M196.9,324.7c-0.1-0.7-0.3-1.3-0.6-1.8
		c-0.5-0.8-1.5-1.2-2.8-1.2c-0.9,0-1.7,0.3-2.3,0.8c-0.6,0.6-1,1.3-1,2.2H196.9z"/>
	<rect id="XMLID_44_" x="208" y="316.7" class="st3" width="2" height="13.9"/>
	<path id="XMLID_47_" class="st3" d="M221.7,321.4c1.1,0.9,1.6,2.2,1.6,3.8c0,1.6-0.5,3-1.4,4.1c-0.9,1.1-2.4,1.6-4.4,1.6
		c-1.6,0-2.9-0.5-3.9-1.4c-1-0.9-1.5-2.2-1.5-3.8c0-1.7,0.5-3.1,1.5-4.1c1-1,2.4-1.5,4.1-1.5C219.4,320.1,220.7,320.6,221.7,321.4z
		 M220.5,328.2c0.5-0.9,0.7-1.8,0.7-2.9c0-0.9-0.2-1.7-0.5-2.3c-0.6-0.9-1.5-1.4-2.9-1.4c-1.2,0-2.1,0.4-2.7,1.2
		c-0.6,0.8-0.8,1.8-0.8,2.9c0,1.1,0.3,2,0.8,2.7c0.6,0.7,1.4,1.1,2.6,1.1C219.1,329.5,220,329.1,220.5,328.2z"/>
	<path id="XMLID_48_" class="st3" d="M227,327.4c0.1,0.6,0.2,1,0.5,1.3c0.5,0.5,1.4,0.8,2.7,0.8c0.8,0,1.4-0.1,2-0.4
		c0.6-0.3,0.9-0.7,0.9-1.3c0-0.4-0.2-0.8-0.7-1c-0.3-0.1-0.9-0.3-1.8-0.5l-1.6-0.3c-1-0.2-1.8-0.5-2.3-0.7c-0.9-0.5-1.3-1.1-1.3-1.9
		c0-1,0.4-1.7,1.2-2.3s1.9-0.9,3.4-0.9c1.8,0,3.2,0.4,4,1.3c0.5,0.6,0.8,1.2,0.7,1.8h-1.9c0-0.4-0.2-0.7-0.5-1
		c-0.5-0.4-1.3-0.7-2.5-0.7c-0.8,0-1.4,0.1-1.8,0.4c-0.4,0.2-0.6,0.6-0.6,1c0,0.4,0.3,0.8,0.8,1.1c0.3,0.2,0.8,0.3,1.4,0.4l1.4,0.3
		c1.5,0.3,2.5,0.6,3,0.9c0.8,0.4,1.2,1.1,1.2,2.1c0,0.9-0.4,1.7-1.2,2.3c-0.8,0.7-2.1,1-3.8,1c-1.8,0-3.1-0.3-3.9-1
		c-0.8-0.7-1.2-1.5-1.2-2.5L227,327.4L227,327.4z"/>
	<path id="XMLID_49_" class="st3" d="M238.5,327.4c0.1,0.6,0.2,1,0.5,1.3c0.5,0.5,1.4,0.8,2.7,0.8c0.8,0,1.4-0.1,2-0.4
		c0.6-0.3,0.9-0.7,0.9-1.3c0-0.4-0.2-0.8-0.7-1c-0.3-0.1-0.9-0.3-1.8-0.5l-1.6-0.3c-1-0.2-1.8-0.5-2.3-0.7c-0.9-0.5-1.3-1.1-1.3-1.9
		c0-1,0.4-1.7,1.2-2.3s1.9-0.9,3.4-0.9c1.8,0,3.2,0.4,4,1.3c0.5,0.6,0.8,1.2,0.7,1.8h-1.9c0-0.4-0.2-0.7-0.5-1
		c-0.5-0.4-1.3-0.7-2.5-0.7c-0.8,0-1.4,0.1-1.8,0.4c-0.4,0.2-0.6,0.6-0.6,1c0,0.4,0.3,0.8,0.8,1.1c0.3,0.2,0.8,0.3,1.4,0.4l1.4,0.3
		c1.5,0.3,2.5,0.6,3,0.9c0.8,0.4,1.2,1.1,1.2,2.1c0,0.9-0.4,1.7-1.2,2.3c-0.8,0.7-2.1,1-3.8,1c-1.8,0-3.1-0.3-3.9-1
		c-0.8-0.7-1.2-1.5-1.2-2.5L238.5,327.4L238.5,327.4z"/>
	<rect id="XMLID_50_" x="248.9" y="316.7" class="st3" width="2" height="13.9"/>
	<path id="XMLID_53_" class="st3" d="M261.4,320.7c0.8,0.3,1.4,0.8,1.8,1.3c0.4,0.5,0.7,1.1,0.8,1.8c0.1,0.5,0.2,1.2,0.2,2.2h-8.8
		c0,1,0.3,1.9,0.9,2.5c0.5,0.6,1.4,0.9,2.5,0.9c1,0,1.9-0.3,2.5-0.9c0.3-0.3,0.6-0.7,0.7-1.2h2c-0.1,0.4-0.2,0.8-0.5,1.2
		c-0.3,0.5-0.6,0.8-1,1.1c-0.6,0.5-1.4,0.8-2.3,1c-0.5,0.1-1,0.2-1.6,0.2c-1.5,0-2.7-0.5-3.8-1.4c-1-0.9-1.6-2.2-1.6-3.9
		c0-1.6,0.5-3,1.6-4c1-1,2.4-1.5,4.1-1.5C259.8,320.2,260.6,320.4,261.4,320.7z M262.1,324.7c-0.1-0.7-0.3-1.3-0.6-1.8
		c-0.5-0.8-1.5-1.2-2.8-1.2c-0.9,0-1.7,0.3-2.3,0.8c-0.6,0.6-1,1.3-1,2.2H262.1z"/>
	<path id="XMLID_54_" class="st3" d="M268,327.4c0.1,0.6,0.2,1,0.5,1.3c0.5,0.5,1.4,0.8,2.7,0.8c0.8,0,1.4-0.1,2-0.4
		c0.6-0.3,0.9-0.7,0.9-1.3c0-0.4-0.2-0.8-0.7-1c-0.3-0.1-0.9-0.3-1.8-0.5L270,326c-1-0.2-1.8-0.5-2.3-0.7c-0.9-0.5-1.3-1.1-1.3-1.9
		c0-1,0.4-1.7,1.2-2.3c0.8-0.6,1.9-0.9,3.4-0.9c1.8,0,3.2,0.4,4,1.3c0.5,0.6,0.8,1.2,0.7,1.8h-1.9c0-0.4-0.2-0.7-0.5-1
		c-0.5-0.4-1.3-0.7-2.5-0.7c-0.8,0-1.4,0.1-1.8,0.4c-0.4,0.2-0.6,0.6-0.6,1c0,0.4,0.3,0.8,0.8,1.1c0.3,0.2,0.8,0.3,1.4,0.4l1.4,0.3
		c1.5,0.3,2.5,0.6,3,0.9c0.8,0.4,1.2,1.1,1.2,2.1c0,0.9-0.4,1.7-1.2,2.3c-0.8,0.7-2.1,1-3.8,1c-1.8,0-3.1-0.3-3.9-1
		c-0.8-0.7-1.2-1.5-1.2-2.5L268,327.4L268,327.4z"/>
	<path id="XMLID_55_" class="st3" d="M279.5,327.4c0.1,0.6,0.2,1,0.5,1.3c0.5,0.5,1.4,0.8,2.7,0.8c0.8,0,1.4-0.1,2-0.4
		c0.6-0.3,0.9-0.7,0.9-1.3c0-0.4-0.2-0.8-0.7-1c-0.3-0.1-0.9-0.3-1.8-0.5l-1.6-0.3c-1-0.2-1.8-0.5-2.3-0.7c-0.9-0.5-1.3-1.1-1.3-1.9
		c0-1,0.4-1.7,1.2-2.3c0.8-0.6,1.9-0.9,3.4-0.9c1.8,0,3.2,0.4,4,1.3c0.5,0.6,0.8,1.2,0.7,1.8h-1.9c0-0.4-0.2-0.7-0.5-1
		c-0.5-0.4-1.3-0.7-2.5-0.7c-0.8,0-1.4,0.1-1.8,0.4c-0.4,0.2-0.6,0.6-0.6,1c0,0.4,0.3,0.8,0.8,1.1c0.3,0.2,0.8,0.3,1.4,0.4l1.4,0.3
		c1.5,0.3,2.5,0.6,3,0.9c0.8,0.4,1.2,1.1,1.2,2.1c0,0.9-0.4,1.7-1.2,2.3c-0.8,0.7-2.1,1-3.8,1c-1.8,0-3.1-0.3-3.9-1
		c-0.8-0.7-1.2-1.5-1.2-2.5L279.5,327.4L279.5,327.4z"/>
	<path id="XMLID_58_" class="st3" d="M302.6,324.4c0.5,0,0.8-0.2,0.9-0.5c0.1-0.2,0.1-0.4,0.1-0.7c0-0.6-0.2-1-0.7-1.3
		c-0.5-0.3-1.2-0.4-2.1-0.4c-1.1,0-1.8,0.2-2.2,0.7c-0.2,0.3-0.4,0.7-0.5,1.2h-1.9c0-1.3,0.5-2.1,1.4-2.6c0.9-0.5,2-0.7,3.2-0.7
		c1.4,0,2.6,0.2,3.4,0.7c0.9,0.5,1.3,1.2,1.3,2.1v5.9c0,0.2,0,0.3,0.1,0.4c0.1,0.1,0.3,0.2,0.5,0.2l0.3,0c0.1,0,0.2,0,0.4,0v1.3
		c-0.3,0.1-0.6,0.1-0.7,0.1c-0.2,0-0.4,0-0.7,0c-0.7,0-1.2-0.2-1.5-0.6c-0.2-0.2-0.3-0.5-0.3-0.9c-0.4,0.5-1,0.9-1.8,1.2
		c-0.8,0.3-1.6,0.5-2.6,0.5c-1.1,0-2-0.3-2.7-0.9c-0.7-0.6-1.1-1.3-1.1-2.1c0-0.9,0.3-1.7,1-2.2c0.7-0.5,1.6-0.8,2.7-1L302.6,324.4z
		 M298.4,329.1c0.4,0.3,0.9,0.4,1.5,0.4c0.7,0,1.4-0.1,2.1-0.4c1.1-0.5,1.7-1.2,1.7-2.3v-1.4c-0.2,0.1-0.6,0.2-1,0.3
		c-0.4,0.1-0.8,0.2-1.1,0.2l-1.2,0.1c-0.7,0.1-1.3,0.2-1.7,0.4c-0.6,0.3-0.9,0.8-0.9,1.4C297.7,328.4,297.9,328.8,298.4,329.1z"/>
	<path id="XMLID_59_" class="st3" d="M311,320.4v6.7c0,0.5,0.1,0.9,0.3,1.3c0.3,0.6,1,0.9,2,0.9c1.4,0,2.3-0.5,2.8-1.6
		c0.3-0.6,0.4-1.4,0.4-2.3v-5h2v10.2h-1.9l0-1.5c-0.3,0.4-0.6,0.7-1,1c-0.8,0.5-1.7,0.8-2.8,0.8c-1.7,0-2.8-0.5-3.4-1.5
		c-0.3-0.5-0.5-1.2-0.5-2.1v-6.9L311,320.4L311,320.4z"/>
	<path id="XMLID_62_" class="st3" d="M328.4,320.7c0.4,0.2,0.8,0.5,1.2,1v-5.1h1.9v14h-1.8v-1.4c-0.5,0.6-1,1.1-1.7,1.4
		c-0.6,0.3-1.4,0.4-2.2,0.4c-1.3,0-2.5-0.5-3.5-1.4c-1-1-1.5-2.2-1.5-3.8c0-1.5,0.4-2.8,1.3-3.8c0.9-1.1,2.2-1.6,3.8-1.6
		C327,320.3,327.8,320.4,328.4,320.7z M323.9,328.4c0.5,0.7,1.4,1.1,2.6,1.1c0.9,0,1.7-0.3,2.3-1c0.6-0.7,0.9-1.7,0.9-2.9
		c0-1.3-0.3-2.2-0.9-2.9c-0.6-0.6-1.4-0.9-2.3-0.9c-1,0-1.8,0.3-2.5,1c-0.6,0.7-0.9,1.6-0.9,2.9C323,326.7,323.3,327.6,323.9,328.4z
		"/>
	<path id="XMLID_65_" class="st3" d="M334.6,316.7h2.1v1.9h-2.1V316.7z M334.6,320.5h2.1v10.1h-2.1V320.5z"/>
	<path id="XMLID_68_" class="st3" d="M348.4,321.4c1.1,0.9,1.6,2.2,1.6,3.8c0,1.6-0.5,3-1.4,4.1c-0.9,1.1-2.4,1.6-4.4,1.6
		c-1.6,0-3-0.5-3.9-1.4c-1-0.9-1.5-2.2-1.5-3.8c0-1.7,0.5-3.1,1.5-4.1c1-1,2.4-1.5,4.1-1.5C346,320.1,347.3,320.6,348.4,321.4z
		 M347.1,328.2c0.5-0.9,0.7-1.8,0.7-2.9c0-0.9-0.2-1.7-0.5-2.3c-0.6-0.9-1.5-1.4-2.9-1.4c-1.2,0-2.1,0.4-2.7,1.2
		c-0.6,0.8-0.8,1.8-0.8,2.9c0,1.1,0.3,2,0.8,2.7c0.6,0.7,1.4,1.1,2.6,1.1C345.7,329.5,346.6,329.1,347.1,328.2z"/>
	<path id="XMLID_69_" class="st3" d="M366.8,321c0.8,0.6,1.4,1.5,1.5,2.9h-2c-0.1-0.6-0.4-1.1-0.8-1.6c-0.4-0.4-1.1-0.6-2.1-0.6
		c-1.3,0-2.2,0.5-2.8,1.6c-0.4,0.7-0.5,1.5-0.5,2.5c0,1,0.3,1.9,0.8,2.6c0.5,0.7,1.3,1,2.4,1c0.8,0,1.5-0.2,2-0.6
		c0.5-0.4,0.8-1,1-1.8h2c-0.2,1.3-0.8,2.3-1.7,3c-0.9,0.6-2,0.9-3.5,0.9c-1.6,0-2.8-0.5-3.8-1.5c-0.9-1-1.4-2.2-1.4-3.6
		c0-1.8,0.5-3.2,1.5-4.2c1-1,2.3-1.5,3.9-1.5C364.9,320.1,366,320.4,366.8,321z"/>
	<path id="XMLID_72_" class="st3" d="M379.1,321.4c1.1,0.9,1.6,2.2,1.6,3.8c0,1.6-0.5,3-1.4,4.1c-0.9,1.1-2.4,1.6-4.4,1.6
		c-1.6,0-3-0.5-3.9-1.4c-1-0.9-1.5-2.2-1.5-3.8c0-1.7,0.5-3.1,1.5-4.1c1-1,2.4-1.5,4.1-1.5C376.7,320.1,378,320.6,379.1,321.4z
		 M377.8,328.2c0.5-0.9,0.7-1.8,0.7-2.9c0-0.9-0.2-1.7-0.5-2.3c-0.6-0.9-1.5-1.4-2.9-1.4c-1.2,0-2.1,0.4-2.7,1.2
		c-0.6,0.8-0.8,1.8-0.8,2.9c0,1.1,0.3,2,0.8,2.7c0.6,0.7,1.4,1.1,2.6,1.1C376.4,329.5,377.3,329.1,377.8,328.2z"/>
	<path id="XMLID_75_" class="st3" d="M389.8,320.7c0.4,0.2,0.8,0.5,1.2,1v-5.1h1.9v14h-1.8v-1.4c-0.5,0.6-1,1.1-1.7,1.4
		c-0.6,0.3-1.4,0.4-2.2,0.4c-1.3,0-2.5-0.5-3.5-1.4c-1-1-1.5-2.2-1.5-3.8c0-1.5,0.4-2.8,1.3-3.8c0.9-1.1,2.2-1.6,3.8-1.6
		C388.4,320.3,389.2,320.4,389.8,320.7z M385.3,328.4c0.5,0.7,1.4,1.1,2.6,1.1c0.9,0,1.7-0.3,2.3-1c0.6-0.7,0.9-1.7,0.9-2.9
		c0-1.3-0.3-2.2-0.9-2.9c-0.6-0.6-1.4-0.9-2.3-0.9c-1,0-1.8,0.3-2.5,1s-0.9,1.6-0.9,2.9C384.5,326.7,384.7,327.6,385.3,328.4z"/>
	<path id="XMLID_78_" class="st3" d="M403.4,320.7c0.8,0.3,1.4,0.8,1.8,1.3c0.4,0.5,0.7,1.1,0.8,1.8c0.1,0.5,0.2,1.2,0.2,2.2h-8.8
		c0,1,0.3,1.9,0.9,2.5s1.4,0.9,2.5,0.9c1,0,1.9-0.3,2.5-0.9c0.3-0.3,0.6-0.7,0.7-1.2h2c-0.1,0.4-0.2,0.8-0.5,1.2
		c-0.3,0.5-0.6,0.8-1,1.1c-0.6,0.5-1.4,0.8-2.3,1c-0.5,0.1-1,0.2-1.6,0.2c-1.5,0-2.7-0.5-3.8-1.4c-1-0.9-1.6-2.2-1.6-3.9
		c0-1.6,0.5-3,1.6-4c1-1,2.4-1.5,4.1-1.5C401.8,320.2,402.6,320.4,403.4,320.7z M404.1,324.7c-0.1-0.7-0.3-1.3-0.6-1.8
		c-0.5-0.8-1.5-1.2-2.8-1.2c-0.9,0-1.7,0.3-2.3,0.8c-0.6,0.6-1,1.3-1,2.2H404.1z"/>
	<path id="XMLID_79_" class="st3" d="M416.7,321c0.8,0.6,1.4,1.5,1.5,2.9h-2c-0.1-0.6-0.4-1.1-0.8-1.6c-0.4-0.4-1.1-0.6-2.1-0.6
		c-1.3,0-2.2,0.5-2.8,1.6c-0.4,0.7-0.5,1.5-0.5,2.5c0,1,0.3,1.9,0.8,2.6c0.5,0.7,1.3,1,2.4,1c0.8,0,1.5-0.2,2-0.6
		c0.5-0.4,0.8-1,1-1.8h2c-0.2,1.3-0.8,2.3-1.7,3c-0.9,0.6-2,0.9-3.5,0.9c-1.6,0-2.8-0.5-3.8-1.5c-0.9-1-1.4-2.2-1.4-3.6
		c0-1.8,0.5-3.2,1.5-4.2c1-1,2.3-1.5,3.9-1.5C414.8,320.1,415.9,320.4,416.7,321z"/>
</g>
</svg>
